<svg width="113" height="29" viewBox="0 0 113 29" fill="none" xmlns="http://www.w3.org/2000/svg">
<path d="M17.184 6.2V23H14.064V15.8H5.376V23H2.256V6.2H5.376V13.136H14.064V6.2H17.184ZM21.6857 6.2H29.0297C30.8217 6.2 32.4137 6.552 33.8057 7.256C35.1977 7.944 36.2777 8.928 37.0457 10.208C37.8137 11.472 38.1977 12.936 38.1977 14.6C38.1977 16.264 37.8137 17.736 37.0457 19.016C36.2777 20.28 35.1977 21.264 33.8057 21.968C32.4137 22.656 30.8217 23 29.0297 23H21.6857V6.2ZM28.8857 20.36C30.1177 20.36 31.1977 20.128 32.1257 19.664C33.0697 19.184 33.7897 18.512 34.2857 17.648C34.7977 16.768 35.0537 15.752 35.0537 14.6C35.0537 13.448 34.7977 12.44 34.2857 11.576C33.7897 10.696 33.0697 10.024 32.1257 9.56C31.1977 9.08 30.1177 8.84 28.8857 8.84H24.8057V20.36H28.8857ZM53.4178 14.264C54.3458 14.568 55.0818 15.08 55.6258 15.8C56.1698 16.504 56.4418 17.384 56.4418 18.44C56.4418 19.896 55.8818 21.024 54.7618 21.824C53.6418 22.608 52.0098 23 49.8658 23H41.5138V6.2H49.3858C51.3698 6.2 52.8978 6.592 53.9698 7.376C55.0418 8.144 55.5778 9.208 55.5778 10.568C55.5778 11.4 55.3858 12.136 55.0018 12.776C54.6178 13.416 54.0898 13.912 53.4178 14.264ZM44.6338 8.648V13.28H49.0498C50.1378 13.28 50.9698 13.088 51.5458 12.704C52.1378 12.304 52.4338 11.728 52.4338 10.976C52.4338 10.208 52.1378 9.632 51.5458 9.248C50.9698 8.848 50.1378 8.648 49.0498 8.648H44.6338ZM49.6738 20.552C52.0898 20.552 53.2978 19.744 53.2978 18.128C53.2978 16.512 52.0898 15.704 49.6738 15.704H44.6338V20.552H49.6738ZM75.2036 23L75.1796 11.864L69.6596 21.08H68.2676L62.7476 12.008V23H59.7716V6.2H62.3396L69.0116 17.336L75.5636 6.2H78.1316L78.1556 23H75.2036Z" fill="#638EFF"/>
<rect x="98.1274" y="0.372559" width="19.9792" height="19.9792" transform="rotate(45 98.1274 0.372559)" fill="#638EFF"/>
<rect x="95.3546" y="3.14539" width="16.0578" height="16.0578" transform="rotate(45 95.3546 3.14539)" fill="#77A2FF"/>
</svg>
