<svg width="108" height="29" viewBox="0 0 108 29" fill="none" xmlns="http://www.w3.org/2000/svg">
<path d="M36.5415 10.3301H33.0874V21H30.3364V10.3301H26.7505V8.23828H36.5415V10.3301ZM41.7393 21H39.0235V8.23828H43.4005C44.9942 8.23828 46.2159 8.57812 47.0655 9.25781C47.921 9.93164 48.3487 10.9189 48.3487 12.2197C48.3487 13.0225 48.1436 13.7168 47.7335 14.3027C47.3233 14.8887 46.7403 15.3398 45.9844 15.6562L48.7794 21H45.8438L43.5059 16.1396H41.7393V21ZM43.2862 14.1621C44.0772 14.1621 44.6602 14.0039 45.0352 13.6875C45.4161 13.3652 45.6065 12.876 45.6065 12.2197C45.6065 11.5459 45.4161 11.0537 45.0352 10.7432C44.6602 10.4268 44.0772 10.2686 43.2862 10.2686H41.7393V14.1621H43.2862ZM53.9333 17.7217L52.8962 21H50.1891L54.3288 8.23828H57.9674L62.2126 21H59.5495L58.4684 17.7217H53.9333ZM56.113 10.5938L54.5485 15.6914H57.8444L56.236 10.5938H56.113ZM62.4622 8.23828H65.2747L67.2346 14.2324C67.5217 15.123 67.888 16.4355 68.3333 18.1699L68.4387 18.627C68.8958 16.7285 69.2913 15.2637 69.6253 14.2324L71.6116 8.23828H74.4153L70.135 21H66.7512L62.4622 8.23828ZM79.6307 13.4238H84.6581V15.4189H79.6307V18.9697H85.3788V21H76.8798V8.23828H85.1942V10.2686H79.6307V13.4238ZM96.3335 21H88.3442V8.23828H90.9721V18.9082H96.3335V21ZM102.894 8.08008C103.948 8.07422 105.135 8.30566 106.453 8.77441L105.899 10.8838C104.675 10.4502 103.679 10.2334 102.911 10.2334C102.29 10.2334 101.801 10.3564 101.443 10.6025C101.086 10.8486 100.907 11.1826 100.907 11.6045C100.907 12.0615 101.071 12.4248 101.399 12.6943C101.733 12.9639 102.34 13.2129 103.219 13.4414C104.514 13.7754 105.434 14.2383 105.979 14.8301C106.524 15.416 106.796 16.2246 106.796 17.2559C106.796 18.5039 106.374 19.4619 105.53 20.1299C104.692 20.792 103.494 21.123 101.936 21.123C100.664 21.123 99.3018 20.8359 97.8487 20.2617L98.4991 18.2139C99.3018 18.501 99.9581 18.7031 100.468 18.8203C100.978 18.9316 101.461 18.9873 101.918 18.9873C102.58 18.9873 103.09 18.8467 103.447 18.5654C103.811 18.2783 103.992 17.8828 103.992 17.3789C103.992 17.0566 103.916 16.7871 103.764 16.5703C103.611 16.3535 103.354 16.1602 102.99 15.9902C102.627 15.8145 102.103 15.6416 101.417 15.4717C100.274 15.1963 99.4395 14.7686 98.9122 14.1885C98.3848 13.6084 98.1212 12.8438 98.1212 11.8945C98.1212 10.6816 98.5372 9.74414 99.3692 9.08203C100.207 8.41406 101.382 8.08008 102.894 8.08008Z" fill="url(#paint0_linear)"/>
<rect y="14.3137" width="16" height="16" rx="4" transform="rotate(-45 0 14.3137)" fill="url(#paint1_linear)"/>
<defs>
<linearGradient id="paint0_linear" x1="26.6274" y1="1.5" x2="105.129" y2="28.315" gradientUnits="userSpaceOnUse">
<stop stop-color="#E96443"/>
<stop offset="1" stop-color="#904E95"/>
</linearGradient>
<linearGradient id="paint1_linear" x1="8.2357" y1="14.5355" x2="14.71" y2="27.2723" gradientUnits="userSpaceOnUse">
<stop stop-color="#E96443"/>
<stop offset="1" stop-color="#904E95"/>
</linearGradient>
</defs>
</svg>
